<svg width="24" height="15" viewBox="0 0 24 15" fill="none" xmlns="http://www.w3.org/2000/svg">
<g opacity="0.8">
<path fill-rule="evenodd" clip-rule="evenodd" d="M11.8365 3.63229C11.8365 2.80156 11.6188 2.0895 11.185 1.49345C10.4618 0.522708 9.23592 0.0253354 7.50313 0H0.638184V14.0145H7.03952C7.76129 14.0145 8.42899 13.9531 9.04669 13.8264C9.66439 13.6984 10.1983 13.4651 10.6511 13.1224C11.0539 12.8237 11.3891 12.4557 11.6567 12.0196C12.0798 11.3609 12.2906 10.6155 12.2906 9.78478C12.2906 8.97938 12.1054 8.294 11.7378 7.73128C11.3661 7.16724 10.82 6.75521 10.0956 6.49385C10.5727 6.25383 10.9336 5.98715 11.1796 5.69646C11.6188 5.17641 11.8365 4.48703 11.8365 3.63229ZM3.4704 5.52546V2.43321H6.56294C7.24281 2.43321 7.80238 2.50655 8.24302 2.6519C8.75123 2.86258 9.00534 3.29328 9.00534 3.948C9.00534 4.53471 8.81205 4.94541 8.42819 5.17743C8.04162 5.40945 7.54017 5.52546 6.92518 5.52546H3.4704ZM3.4704 7.84651V11.5841H6.91977C7.53611 11.5841 8.01729 11.5015 8.35926 11.3375C8.98236 11.0308 9.29324 10.4494 9.29324 9.58799C9.29324 8.85726 8.99317 8.35722 8.38899 8.08387C8.05109 7.93185 7.57666 7.85185 6.96843 7.84651H3.4704ZM15.3276 2.39648H21.4154V0.652344H15.3276V2.39648ZM22.6927 5.39516C22.2169 4.69644 21.6127 4.1844 20.8788 3.86171C20.1462 3.53768 19.3231 3.375 18.408 3.375C16.8685 3.375 15.6182 3.85637 14.6518 4.81245C13.6881 5.77119 13.2056 7.14863 13.2056 8.94478C13.2056 10.8596 13.7381 12.2437 14.81 13.0931C15.8764 13.9438 17.1104 14.3679 18.5094 14.3679C20.203 14.3679 21.5208 13.8638 22.4615 12.8571C23.0644 12.2224 23.405 11.597 23.4793 10.9836H20.6747C20.5125 11.2876 20.3233 11.525 20.1084 11.697C19.7177 12.013 19.2082 12.1717 18.5851 12.1717C17.993 12.1717 17.4889 12.041 17.0699 11.781C16.3778 11.3636 16.0156 10.6342 15.9697 9.5955H23.624C23.6361 8.70076 23.6064 8.0127 23.532 7.538C23.405 6.72593 23.1266 6.01121 22.6927 5.39516ZM16.0378 7.80554C16.1378 7.13082 16.3825 6.59611 16.7704 6.20141C17.1583 5.80671 17.7071 5.60936 18.4099 5.60936C19.0587 5.60936 19.6007 5.79471 20.0413 6.16674C20.4766 6.54144 20.7226 7.08548 20.7726 7.80554H16.0378Z" fill="#9A9AAD"/>
</g>
</svg>
