<svg width="20" height="19" viewBox="0 0 20 19" fill="none" xmlns="http://www.w3.org/2000/svg">
<g opacity="0.8">
<path fill-rule="evenodd" clip-rule="evenodd" d="M9.96909 0.00276121C9.73665 0.00265691 9.52127 0.00256026 9.32105 0.00287359V0C7.17878 0.00239466 6.76786 0.0167626 5.7075 0.0646558C4.5868 0.116141 3.97832 0.302925 3.57314 0.460972C3.03674 0.669787 2.65359 0.918831 2.25129 1.32113C1.84899 1.72344 1.59946 2.10658 1.39113 2.64299C1.2338 3.04816 1.04654 3.65641 0.995292 4.77711C0.940215 5.98881 0.929199 6.35088 0.929199 9.42036C0.929199 12.4898 0.940215 12.8538 0.995292 14.0655C1.0463 15.1862 1.2338 15.7945 1.39113 16.1992C1.59994 16.7358 1.84899 17.118 2.25129 17.5203C2.65359 17.9226 3.03674 18.1716 3.57314 18.38C3.97856 18.5373 4.5868 18.7246 5.7075 18.7763C6.9192 18.8314 7.28295 18.8433 10.3522 18.8433C13.4212 18.8433 13.7852 18.8314 14.9969 18.7763C16.1176 18.725 16.7263 18.5383 17.131 18.3802C17.6676 18.1719 18.0496 17.9228 18.4519 17.5205C18.8542 17.1185 19.1037 16.7365 19.3121 16.2001C19.4694 15.7954 19.6566 15.1872 19.7079 14.0665C19.763 12.8548 19.7749 12.4908 19.7749 9.42323C19.7749 6.35567 19.763 5.99168 19.7079 4.77998C19.6569 3.65928 19.4694 3.05104 19.3121 2.64634C19.1032 2.10994 18.8542 1.72679 18.4519 1.32449C18.0498 0.922184 17.6674 0.673139 17.131 0.464804C16.7258 0.307474 16.1176 0.120212 14.9969 0.0689662C13.7849 0.013889 13.4212 0.00287359 10.3522 0.00287359L9.96909 0.00276121ZM15.1084 3.29023C15.1084 2.52849 15.7263 1.91139 16.4878 1.91139V1.91091C17.2493 1.91091 17.8671 2.52873 17.8671 3.29023C17.8671 4.05173 17.2493 4.66956 16.4878 4.66956C15.7263 4.66956 15.1084 4.05173 15.1084 3.29023ZM10.3513 3.52347C7.09155 3.5236 4.44869 6.16654 4.44869 9.42631C4.44869 12.6862 7.09168 15.328 10.3515 15.328C13.6114 15.328 16.2534 12.6862 16.2534 9.42631C16.2534 6.16646 13.6111 3.52347 10.3513 3.52347ZM14.1833 9.42439C14.1833 7.30823 12.4678 5.59294 10.3519 5.59294C8.23569 5.59294 6.5204 7.30823 6.5204 9.42439C6.5204 11.5403 8.23569 13.2559 10.3519 13.2559C12.4678 13.2559 14.1833 11.5403 14.1833 9.42439Z" fill="#9A9AAD"/>
</g>
</svg>
