<svg width="90" height="90" viewBox="0 0 90 90" fill="none" xmlns="http://www.w3.org/2000/svg">
<mask id="mask0_3031_1267" style="mask-type:alpha" maskUnits="userSpaceOnUse" x="0" y="-1" width="90" height="91">
<circle cx="45" cy="44.9961" r="45" fill="#F7F7FA"/>
</mask>
<g mask="url(#mask0_3031_1267)">
<circle cx="44.9999" cy="44.9961" r="45" fill="#F7F7FA"/>
<path d="M25.0001 45.4435C25.0001 52.2919 30.0047 56.9454 36.4141 56.9454C42.8236 56.9454 47.8282 52.2919 47.8282 45.4435C47.8282 38.5951 42.8236 33.9417 36.4141 33.9417C30.0047 33.9417 25.0001 38.5951 25.0001 45.4435ZM30.5315 45.4435C30.5315 41.4925 32.9021 38.8585 36.4141 38.8585C39.9261 38.8585 42.2967 41.4925 42.2967 45.4435C42.2967 49.3945 39.9261 52.0285 36.4141 52.0285C32.9021 52.0285 30.5315 49.3945 30.5315 45.4435Z" fill="#1300F0"/>
<path d="M56.223 48.367L56.223 48.367L56.2263 48.3675C57.3084 48.5406 58.0533 48.7692 58.519 49.0705C58.9446 49.3459 59.1285 49.6722 59.1285 50.1411C59.1285 50.5891 58.8989 51.0192 58.3508 51.3606C57.7896 51.7102 56.9066 51.9521 55.6932 51.9521C53.3865 51.9521 50.8959 51.142 49.0595 48.3856C48.6631 47.7905 47.8453 47.5504 47.1922 47.9528L44.2732 49.7514L44.5437 50.1904L44.2732 49.7514C43.6495 50.1357 43.4302 50.9818 43.8866 51.6106C46.2646 54.8875 50.3604 57.4613 55.781 57.4613C58.5455 57.4613 60.9679 56.7253 62.7123 55.3907C64.4668 54.0483 65.5158 52.1118 65.5158 49.7899C65.5158 47.4548 64.4871 45.8195 62.8326 44.6887C61.2118 43.581 59.0023 42.9628 56.6121 42.5644L53.9798 42.1257C53.9795 42.1257 53.9792 42.1256 53.9789 42.1256C52.9666 41.9532 52.2618 41.7258 51.82 41.4389C51.411 41.1732 51.2482 40.8751 51.2482 40.483C51.2482 40.0567 51.4201 39.6997 51.8068 39.4298C52.2152 39.1448 52.8982 38.9354 53.9372 38.9354C55.8217 38.9354 57.9854 39.6254 60.2088 41.9412C60.702 42.4549 61.5352 42.5314 62.0969 42.0358L64.5743 39.8498C65.1352 39.3549 65.1913 38.4713 64.6295 37.9302C62.0888 35.4831 58.5373 33.4262 53.6738 33.4262C51.0838 33.4262 48.8855 34.1191 47.3237 35.3851C45.7521 36.659 44.8609 38.4864 44.8609 40.6586C44.8609 42.8414 45.7393 44.4752 47.3056 45.6529C48.8418 46.808 51.0132 47.506 53.5895 47.9281C53.5898 47.9281 53.5901 47.9282 53.5904 47.9282L56.223 48.367Z" fill="#FFE925" stroke="#1300F0" stroke-width="1.03146" stroke-linejoin="round"/>
</g>
</svg>
