<svg width="306" height="93" viewBox="0 0 306 93" fill="none" xmlns="http://www.w3.org/2000/svg">
<path d="M47.4756 -9.43161e-07C32.4767 -4.69886e-07 24.9772 -2.33249e-07 19.7199 3.81966C18.022 5.05325 16.5288 6.5464 15.2952 8.24429C11.4756 13.5016 11.4756 21.0011 11.4756 36L11.4756 49.77C11.4756 51.497 11.4756 52.3606 11.0172 52.9152C10.8702 53.0931 10.6935 53.2442 10.4949 53.3618C9.87586 53.7285 9.02279 53.5945 7.31667 53.3263L4.56648 52.8941C2.13654 52.5122 0.921568 52.3213 0.414816 52.8542C0.258494 53.0186 0.144415 53.2185 0.0823768 53.4367C-0.118734 54.1441 0.663615 55.093 2.22831 56.991L9.55842 65.8822C9.71289 66.0696 9.79013 66.1633 9.86246 66.2567C10.8587 67.5435 11.4221 69.1126 11.472 70.7392C11.4756 70.8573 11.4756 70.9788 11.4756 71.2216C11.4756 72.873 11.4756 73.6987 11.5243 74.3956C12.2201 84.3412 20.1344 92.2555 30.08 92.9513C30.7769 93 31.6026 93 33.254 93L270 93C284.999 93 292.498 93 297.756 89.1803C299.454 87.9467 300.947 86.4536 302.18 84.7557C306 79.4984 306 71.9989 306 57L306 36C306 21.0011 306 13.5016 302.18 8.24429C300.947 6.54639 299.454 5.05324 297.756 3.81965C292.498 -8.67459e-06 284.999 -8.43796e-06 270 -7.96468e-06L47.4756 -9.43161e-07Z" fill="#F7F7FA"/>
</svg>
