<svg width="22" height="18" viewBox="0 0 22 18" fill="none" xmlns="http://www.w3.org/2000/svg">
<g opacity="0.8">
<path fill-rule="evenodd" clip-rule="evenodd" d="M10.9053 4.58648L10.9505 5.33221L10.1968 5.2409C7.45312 4.89086 5.0562 3.70377 3.02108 1.71006L2.02613 0.720813L1.76985 1.45133C1.22715 3.07978 1.57388 4.79954 2.7045 5.9562C3.3075 6.5954 3.17183 6.68672 2.13165 6.30624C1.76985 6.18449 1.45328 6.09317 1.42313 6.13883C1.3176 6.24536 1.6794 7.63031 1.96583 8.17819C2.35778 8.93915 3.15675 9.68489 4.0311 10.1262L4.76977 10.4763L3.89542 10.4915C3.05123 10.4915 3.02108 10.5067 3.11153 10.8263C3.41302 11.8156 4.60395 12.8657 5.93055 13.3223L6.8652 13.6419L6.05115 14.1289C4.84515 14.829 3.4281 15.2247 2.01105 15.2551C1.33268 15.2703 0.774902 15.3312 0.774902 15.3769C0.774902 15.529 2.61405 16.3813 3.68437 16.7161C6.89535 17.7054 10.7093 17.2792 13.5736 15.5899C15.6087 14.3876 17.6438 11.9982 18.5935 9.68489C19.1061 8.45214 19.6186 6.19971 19.6186 5.11915C19.6186 4.41907 19.6639 4.32775 20.5081 3.4907C21.0055 3.00369 21.4729 2.47101 21.5633 2.31882C21.7141 2.02966 21.699 2.02966 20.9302 2.28839C19.6488 2.74496 19.4679 2.68408 20.101 1.99922C20.5684 1.51221 21.1261 0.629498 21.1261 0.370773C21.1261 0.325115 20.9 0.401211 20.6437 0.538183C20.3724 0.690375 19.7694 0.918662 19.3171 1.05563L18.5031 1.31436L17.7644 0.812128C17.3574 0.538183 16.7845 0.2338 16.483 0.142485C15.7142 -0.0705826 14.5384 -0.0401443 13.8449 0.203362C11.9605 0.888224 10.7696 2.65364 10.9053 4.58648Z" fill="#9A9AAD"/>
</g>
</svg>
