<svg width="24" height="13" viewBox="0 0 24 13" fill="none" xmlns="http://www.w3.org/2000/svg">
<g opacity="0.8">
<path fill-rule="evenodd" clip-rule="evenodd" d="M13.5626 12.8198C13.5626 12.8198 13.9775 12.7745 14.19 12.5505C14.3845 12.3452 14.3777 11.9578 14.3777 11.9578C14.3777 11.9578 14.3519 10.1489 15.2075 9.88177C16.0508 9.61909 17.1336 11.6311 18.2827 12.4048C19.1507 12.9897 19.8096 12.8617 19.8096 12.8617L22.8802 12.8198C22.8802 12.8198 24.4858 12.7226 23.7246 11.4832C23.6616 11.3817 23.2805 10.566 21.4421 8.89067C19.5161 7.13693 19.7747 7.42057 22.0931 4.38656C23.5054 2.53901 24.0698 1.41105 23.8933 0.928746C23.7257 0.467409 22.6868 0.589917 22.6868 0.589917L19.2305 0.610887C19.2305 0.610887 18.9741 0.576673 18.7841 0.688144C18.5986 0.797408 18.4783 1.05236 18.4783 1.05236C18.4783 1.05236 17.9319 2.48162 17.2021 3.69787C15.6629 6.26281 15.0479 6.39857 14.796 6.23964C14.2102 5.8677 14.3564 4.74747 14.3564 3.95172C14.3564 1.46513 14.7409 0.428781 13.6087 0.160587C13.2331 0.0711894 12.9565 0.0126945 11.9952 0.00276144C10.7618 -0.009379 9.71834 0.00717613 9.12693 0.290821C8.7334 0.47955 8.42982 0.901154 8.61534 0.925435C8.84359 0.955234 9.3608 1.06229 9.63514 1.42871C9.98932 1.90219 9.97695 2.96393 9.97695 2.96393C9.97695 2.96393 10.1805 5.89087 9.50134 6.25398C9.03585 6.50342 8.39721 5.99462 7.02436 3.66697C6.32163 2.475 5.79092 1.15721 5.79092 1.15721C5.79092 1.15721 5.68861 0.911087 5.50534 0.778646C5.28383 0.618613 4.97463 0.568947 4.97463 0.568947L1.69035 0.589917C1.69035 0.589917 1.19675 0.603161 1.01573 0.813964C0.854947 1.00048 1.00336 1.38788 1.00336 1.38788C1.00336 1.38788 3.57479 7.29365 6.48691 10.2703C9.15728 12.9986 12.1886 12.8198 12.1886 12.8198H13.5626Z" fill="#9A9AAD"/>
</g>
</svg>
