<svg width="183" height="70" fill="none" xmlns="http://www.w3.org/2000/svg"><path d="M7.652 55.38H.44c-.244 0-.44.173-.44.383v9.578c0 .228.182.386.44.386h1.402c.262 0 .44-.16.44-.386v-8.03h5.371c.254 0 .44-.156.44-.38v-1.17c-.001-.21-.2-.38-.44-.38zm30.09-.217c-2.058 0-3.298.832-3.748 1.204-.11-.252-.261-.619-.318-.732-.05-.109-.16-.254-.42-.254h-1.083a.323.323 0 00-.323.241.166.166 0 00-.02.08v13.452c0 .186.17.338.384.338h1.538c.212 0 .384-.152.384-.338v-3.485c.39.096 1.316.273 2.814.273 3.944 0 5.558-1.575 5.558-5.427 0-3.804-1.38-5.352-4.766-5.352zm-.785 8.845c-1.33 0-2.453-.179-2.82-.246v-5.731c.24-.183 1.291-.895 2.958-.895 1.846 0 2.911.566 2.911 3.46 0 2.642-.687 3.412-3.05 3.412zm140.772-8.845c-1.569 0-3.153.167-3.657.263-.228.04-.364.19-.364.429v1.143c0 .338.222.425.424.38.489-.101 2.013-.286 3.48-.286 2.445 0 3.051.437 3.055 2.239-.447-.045-1.649-.167-2.98-.167-3.587 0-4.978.953-4.978 3.409 0 2.461 1.19 3.375 4.387 3.375 1.988 0 3.27-.803 3.704-1.127l.327.656c.08.162.228.252.422.252h1.085c.199 0 .341-.14.341-.347V59.4c0-3.526-2.005-4.237-5.246-4.237zm2.938 8.038c-.273.182-1.371.813-3.096.813-2.085 0-2.421-.352-2.421-1.477 0-1.095.286-1.575 2.958-1.575 1.176 0 2.192.101 2.557.137v2.102h.002zm-103.282-7.82H75.65c-.172 0-.41.037-.516.328-.09.247-2.051 5.648-3.116 8.568-.914-2.583-2.947-8.362-3.022-8.568-.102-.29-.343-.328-.513-.328H66.71a.33.33 0 00-.272.134.343.343 0 00-.016.314c.105.267 2.31 6.007 3.253 8.457l.41 1.076c.096.252.272.367.56.367h.847l-.122.323c-.362.963-.561 1.21-1.528 1.21h-.32c-.221 0-.381.182-.381.445v1.4c0 .259.16.44.381.44h.365c1.765 0 2.703-.64 3.338-2.29 0 0 4.324-11.121 4.444-11.434.046-.111.037-.227-.026-.308a.294.294 0 00-.259-.134zm69.854 0h-9.221a.35.35 0 00-.36.349v9.652c0 .196.158.347.36.347h1.545c.208 0 .376-.157.376-.347v-8.109h5.386v8.11c0 .19.166.346.383.346h1.531a.347.347 0 00.362-.347V55.73a.346.346 0 00-.362-.35zm-35.508 0h-9.225a.347.347 0 00-.356.349v9.652c0 .19.155.347.356.347h1.544c.211 0 .379-.157.379-.347v-8.109h5.379v8.11c0 .19.174.346.383.346h1.54c.212 0 .363-.15.363-.347V55.73c0-.198-.151-.35-.363-.35zM8.77 0C3.602 0 .715 2.87.715 8.057v33.368h27.613c2.306 0 3.457-1.153 3.457-3.455V11.51h21.87c2.294-.004 3.438-1.154 3.438-3.448V.002H8.77V0zm65.852 11.51h3.495v.006c1.74 0 2.638.574 3.106 2.316h.01l3.375 12.29H70.581l4.04-14.611zM67.448 0L54.795 41.425h11.55l1.945-7.039h18.59l1.117 4.056c.73 2.209 1.925 2.983 4.08 2.983h29.842L110.788 8.938h-.004C108.378 1.926 105.423 0 96.218 0H67.45zm59.171 0v8.071c.007 2.288 1.157 3.439 3.451 3.439h19.327c1.403 0 2.537.922 2.537 2.53 0 1.61-1.134 2.536-2.537 2.536h-13.572v8.268h13.572c1.403 0 2.537.928 2.537 2.538 0 1.609-1.134 2.536-2.537 2.536H126.62v8.06c0 2.294 1.15 3.447 3.452 3.447h43.722c5.757 0 9.205-3.452 9.205-8.057v-4.522c0-5.14-3.674-7.678-6.926-8.163v-.982c3.252-.48 6.926-2.996 6.926-8.134V8.058c0-5.178-2.868-8.057-8.054-8.057H126.62V0z" fill="#F7F7FA"/></svg>