<svg width="251" height="121" fill="none" xmlns="http://www.w3.org/2000/svg"><path d="M77.526 78.75h15.93v5.196h-7.578v36.505h-8.352v-41.7zm25.373 26.046l1.432-20.85h.479l1.431 20.85h-3.342zm-9.249 15.655h8.177l.774-11.075h3.938l.778 11.075h8.173l-4.355-41.7H98.006l-4.356 41.7zm33.802-14.595v7.861c0 1.06.822 1.367 1.301 1.367.788 0 1.336-.649 1.336-1.367v-9.707c0-1.299-.24-2.735-3.356-2.735h-3.39v-4.58h3.527c2.362 0 3.219-.547 3.219-3.11v-8.272c0-.717-.548-1.367-1.336-1.367-.479 0-1.301.274-1.301 1.367v6.802h-8.355v-5.913c0-2.905.342-7.451 6.198-7.451h6.917c5.855 0 6.232 4.546 6.232 7.451v6.665c0 4.546-3.185 5.777-5.685 5.674v.41c5.616-.136 5.685 4.17 5.685 5.64v8.408c0 2.94-.377 7.452-6.232 7.452h-6.917c-5.856 0-6.198-4.512-6.198-7.452v-7.143h8.355zm16.47-27.106h19.347v41.701h-8.355V83.946h-2.637v36.505h-8.355v-41.7zm33.181 22.936v-17.74h1.096c.89 0 1.541.752 1.541 2.085v13.57c0 1.333-.651 2.085-1.541 2.085h-1.096zm-8.355 18.765h8.355v-14.185h4.794c5.822 0 6.198-4.512 6.198-7.452V86.203c0-2.905-.376-7.451-6.198-7.451h-13.149v41.7zm35.818-6.734c0 .718-.548 1.367-1.335 1.367-.48 0-1.302-.307-1.302-1.367V85.313c0-1.093.822-1.367 1.302-1.367.787 0 1.335.65 1.335 1.367v28.404zm-10.992-.718c0 2.94.377 7.452 6.198 7.452h6.951c5.822 0 6.198-4.512 6.198-7.452V86.202c0-2.905-.376-7.451-6.198-7.451h-6.951c-5.821 0-6.198 4.546-6.198 7.451v26.797zm46.537-34.249H251v41.701h-8.355V94.303h-.308l-4.315 26.148h-6.677l-4.281-26.148h-.308v26.148h-8.355v-41.7h10.855l5.445 29.326 5.41-29.326zM66.698 21.738C64.14 10.562 57.73 1.47 56.847 0c-1.398 2.085-6.51 10.117-9.11 19.004-2.838 9.947-3.256 18.765-2.276 27.413.972 8.681 4.647 17.602 4.647 17.602 1.951 4.649 4.876 9.673 6.78 12.134 2.79-3.623 9.204-14.424 11.204-28.506 1.113-7.861 1.16-14.732-1.394-25.909zM56.847 73.35c-1.257-2.358-3.21-6.835-3.394-13.808-.048-6.7 2.647-12.476 3.435-13.672.702 1.196 3.023 6.22 3.3 13.09.189 6.7-2.044 11.998-3.342 14.39zm9.108-32.641c-.096 4.272-.606 8.784-1.257 11.484.233-4.648-.325-11.177-1.393-16.304-1.069-5.093-4.092-13.638-6.507-17.569-2.229 3.76-4.975 11.143-6.413 17.535-1.445 6.392-1.486 14.15-1.486 16.475-.384-1.948-1.343-8.955-1.072-15.962.226-5.777 1.582-11.758 2.325-14.493 2.835-9.126 6.044-14.97 6.646-15.893.603.922 4.644 8.134 6.74 15.688 2.085 7.554 2.506 14.8 2.417 19.038z" fill="#F7F7FA"/><path d="M61.185 78.751H41.738v13.023c.018 0 .031-.034.048-.034 4.582-4.58 12.013-4.58 16.598 0 4.582 4.546 4.582 11.963 0 16.543-.02.034-.041.034-.062.068-.024 0-.048.035-.068.069-4.572 4.512-10.543 6.767-16.515 6.767-6 0-12-2.255-16.574-6.836-8.068-8.032-9.023-20.508-2.873-29.6a23.688 23.688 0 012.873-3.486c4.575-4.58 10.574-6.836 16.574-6.836V37.12C18.686 37.12 0 55.748 0 78.751c0 23.004 18.686 41.666 41.739 41.666 12.019 0 22.846-5.093 30.462-13.194V78.751H61.185z" fill="#F7F7FA"/></svg>