<svg width="20" height="19" fill="none" xmlns="http://www.w3.org/2000/svg"><path fill-rule="evenodd" clip-rule="evenodd" d="M9.97.003h-.65V0C7.18.002 6.768.017 5.707.065 4.587.116 3.978.303 3.573.46c-.536.209-.92.458-1.322.86a3.561 3.561 0 00-.86 1.322c-.157.405-.344 1.013-.396 2.134C.94 5.99.93 6.351.93 9.42c0 3.07.011 3.434.066 4.646.051 1.12.239 1.728.396 2.133.209.537.458.919.86 1.321.403.403.786.652 1.322.86.406.157 1.014.345 2.134.396 1.212.055 1.576.067 4.645.067 3.07 0 3.433-.012 4.645-.067 1.12-.051 1.73-.238 2.134-.396a3.555 3.555 0 001.32-.86c.403-.401.653-.784.861-1.32.157-.405.345-1.013.396-2.133.055-1.212.067-1.576.067-4.644 0-3.067-.012-3.431-.067-4.643-.051-1.12-.239-1.729-.396-2.134a3.568 3.568 0 00-.86-1.322 3.555 3.555 0 00-1.321-.86C16.726.308 16.118.12 14.997.07 13.785.014 13.42.003 10.352.003H9.97zm5.138 3.287a1.38 1.38 0 112.758 0 1.38 1.38 0 01-2.758 0zm-4.757.233a5.903 5.903 0 10.001 11.807 5.903 5.903 0 000-11.807zm3.832 5.901a3.831 3.831 0 10-7.663 0 3.831 3.831 0 007.663 0z" fill="#9A9AAD" opacity=".8"/></svg>