<svg width="90" height="90" fill="none" xmlns="http://www.w3.org/2000/svg"><mask id="mask0_3031_1267" style="mask-type:alpha" maskUnits="userSpaceOnUse" x="0" y="-1" width="90" height="91"><circle cx="45" cy="44.996" r="45" fill="#F7F7FA"/></mask><g mask="url(#mask0_3031_1267)"><circle cx="45" cy="44.996" r="45" fill="#F7F7FA"/><path d="M25 45.444c0 6.848 5.005 11.501 11.414 11.501 6.41 0 11.414-4.653 11.414-11.502 0-6.848-5.004-11.501-11.414-11.501S25 38.595 25 45.444zm5.532 0c0-3.952 2.37-6.586 5.882-6.586 3.512 0 5.883 2.635 5.883 6.586 0 3.95-2.37 6.584-5.883 6.584-3.512 0-5.883-2.633-5.883-6.584z" fill="#1300F0"/><path d="M56.223 48.367h.003c1.082.174 1.827.402 2.293.704.426.275.61.601.61 1.07 0 .448-.23.878-.778 1.22-.561.35-1.444.591-2.658.591-2.306 0-4.797-.81-6.633-3.566-.397-.596-1.215-.836-1.868-.433l-2.919 1.798.27.44-.27-.44c-.623.385-.843 1.23-.386 1.86 2.378 3.277 6.473 5.85 11.894 5.85 2.764 0 5.187-.736 6.931-2.07 1.755-1.343 2.804-3.28 2.804-5.601 0-2.335-1.029-3.97-2.683-5.101-1.621-1.108-3.83-1.726-6.22-2.125l-2.633-.438h-.001c-1.012-.173-1.717-.4-2.159-.687-.409-.266-.572-.564-.572-.956 0-.426.172-.783.559-1.053.408-.285 1.091-.495 2.13-.495 1.885 0 4.048.69 6.272 3.006.493.514 1.326.59 1.888.095l2.477-2.186c.561-.495.617-1.379.055-1.92-2.54-2.447-6.092-4.504-10.955-4.504-2.59 0-4.788.693-6.35 1.96-1.572 1.273-2.463 3.1-2.463 5.273 0 2.182.878 3.816 2.445 4.994 1.536 1.155 3.707 1.853 6.284 2.275 0 0 0 0 0 0l2.633.439z" fill="#FFE925" stroke="#1300F0" stroke-width="1.031" stroke-linejoin="round"/></g></svg>