<svg width="22" height="18" fill="none" xmlns="http://www.w3.org/2000/svg"><path fill-rule="evenodd" clip-rule="evenodd" d="M10.905 4.586l.046.746-.754-.091c-2.744-.35-5.14-1.537-7.176-3.53L2.026.72l-.256.73c-.543 1.629-.196 3.349.934 4.505.603.64.468.73-.572.35-.362-.122-.679-.213-.709-.167-.105.106.256 1.491.543 2.04.392.76 1.19 1.506 2.065 1.947l.739.35-.875.015c-.844 0-.874.016-.783.335.301.99 1.492 2.04 2.819 2.496l.934.32-.814.487a8.487 8.487 0 01-4.04 1.126c-.678.015-1.236.076-1.236.122 0 .152 1.84 1.004 2.91 1.34 3.21.988 7.024.562 9.889-1.127 2.035-1.202 4.07-3.592 5.02-5.905.512-1.233 1.025-3.485 1.025-4.566 0-.7.045-.791.89-1.628.497-.487.964-1.02 1.054-1.172.151-.29.136-.29-.633-.03-1.281.456-1.462.395-.829-.29.467-.487 1.025-1.37 1.025-1.628 0-.046-.226.03-.482.167-.272.152-.875.38-1.327.518l-.814.258-.739-.502c-.407-.274-.98-.578-1.281-.67-.769-.213-1.945-.182-2.638.061-1.885.685-3.075 2.45-2.94 4.383z" fill="#9A9AAD" opacity=".8"/></svg>