<svg width="24" height="13" fill="none" xmlns="http://www.w3.org/2000/svg"><path fill-rule="evenodd" clip-rule="evenodd" d="M13.563 12.82s.414-.046.627-.27c.194-.205.188-.592.188-.592s-.026-1.81.83-2.076c.843-.263 1.926 1.75 3.075 2.523.868.585 1.527.457 1.527.457l3.07-.042s1.606-.097.845-1.337c-.063-.101-.445-.917-2.283-2.592-1.926-1.754-1.667-1.47.651-4.504 1.412-1.848 1.977-2.976 1.8-3.458-.167-.462-1.206-.34-1.206-.34L19.23.612s-.256-.034-.446.077c-.185.11-.306.364-.306.364s-.546 1.43-1.276 2.646c-1.54 2.565-2.154 2.7-2.406 2.542-.586-.372-.44-1.493-.44-2.288 0-2.487.385-3.523-.747-3.791-.376-.09-.652-.148-1.614-.158C10.762-.01 9.718.007 9.127.29c-.394.19-.697.61-.512.635.229.03.746.137 1.02.504.354.473.342 1.535.342 1.535s.204 2.927-.476 3.29c-.465.25-1.104-.26-2.477-2.587-.702-1.192-1.233-2.51-1.233-2.51S5.689.911 5.505.78a1.43 1.43 0 00-.53-.21L1.69.589s-.493.014-.674.225c-.161.186-.013.574-.013.574s2.572 5.906 5.484 8.882c2.67 2.729 5.702 2.55 5.702 2.55h1.374z" fill="#9A9AAD" opacity=".8"/></svg>